{"title":"r...rajkumar(2013)  hd cam __CZAR__","uid":9310813,"size":962741270,"categoryP":"video","categoryS":"movies","magnet":"?xt=urn:btih:460fecd788c9510cc9e809c111a8d63c78bb87ca&amp;dn=r...rajkumar%282013%29++hd+cam+__CZAR__&amp;tr=udp%3A%2F%2Ftracker.openbittorrent.com%3A80&amp;tr=udp%3A%2F%2Fopen.demonii.com%3A1337&amp;tr=udp%3A%2F%2Ftracker.coppersurfer.tk%3A6969&amp;tr=udp%3A%2F%2Fexodus.desync.com%3A6969","seeders":0,"leechers":0,"uploader":"__CZAR__","files":2,"time":1386401394,"description":"\n\nPlease check SCREEN SHOTS first :\n\n\n\n\n\n\n\n\nFormat : MPEG-PS\nFile size : 698 MiB\nDuration : 39mn 6s\nOverall bit rate mode : Variable\nOverall bit rate : 2 495 Kbps\n\nVideo\nID : 224 (0xE0)\nFormat : MPEG Video\nFormat version : Version 2\nFormat profile : Main@Main\nFormat settings, BVOP : Yes\nFormat settings, Matrix : Default\nFormat settings, GOP : M=3, N=13\nDuration : 39mn 6s\nBit rate mode : Variable\nBit rate : 2 317 Kbps\nMaximum bit rate : 9 072 Kbps\nWidth : 352 pixels\nHeight : 288 pixels\nDisplay aspect ratio : 4:3\nFrame rate : 25.000 fps\nStandard : PAL\nColor space : YUV\nChroma subsampling : 4:2:0\nBit depth : 8 bits\nScan type : Progressive\nCompression mode : Lossy\nBits/(Pixel*Frame) : 0.914\nStream size : 648 MiB (93%)\n\nAudio\nID : 192 (0xC0)\nFormat : MPEG Audio\nFormat version : Version 1\nFormat profile : Layer 2\nDuration : 39mn 6s\nBit rate mode : Constant\nBit rate : 128 Kbps\nChannel(s) : 2 channels\nSampling rate : 48.0 KHz\nCompression mode : Lossy\nStream size : 35.8 MiB (5%)\n","torrent":{"xt":"urn:btih:460fecd788c9510cc9e809c111a8d63c78bb87ca","amp;dn":"r...rajkumar%282013%29++hd+cam+__CZAR__","amp;tr":["udp%3A%2F%2Ftracker.openbittorrent.com%3A80","udp%3A%2F%2Fopen.demonii.com%3A1337","udp%3A%2F%2Ftracker.coppersurfer.tk%3A6969","udp%3A%2F%2Fexodus.desync.com%3A6969"],"infoHash":"460fecd788c9510cc9e809c111a8d63c78bb87ca","infoHashBuffer":{"type":"Buffer","data":[70,15,236,215,136,201,81,12,201,232,9,193,17,168,214,60,120,187,135,202]},"announce":[],"urlList":[]}}